<?xml version="1.0" encoding="UTF-8" standalone="no"?>
<!-- Created with VectorDraw -->
<svg 
 	 width = "595.000000" 
 	 height = "841.000000" 
xmlns:dc="http://purl.org/dc/elements/1.1/"
xmlns:cc="http://web.resource.org/cc/"
xmlns:rdf="http://www.w3.org/1999/02/22-rdf-syntax-ns#"
 xmlns:svg="http://www.w3.org/2000/svg"
 xmlns="http://www.w3.org/2000/svg" 
 xmlns:sodipodi="http://inkscape.sourceforge.net/DTD/sodipodi-0.dtd"
 xmlns:inkscape="http://www.inkscape.org/namespaces/inkscape"
 >
<g inkscape:label="Background" inkscape:groupmode="layer" id="Background">
<path  style="fill:none;stroke:#000000;stroke-width:1.000000px;stroke-opacity:1.000000;stroke-linecap:butt;stroke-linejoin:miter;" 
 d="M 75.708527,207.458374 C 82.670074,213.928726 82.670074,224.419235 75.708527,230.889587 C 68.746964,237.359924 57.460068,237.359924 50.498505,230.889587 C 43.536957,224.419235 43.536957,213.928726 50.498505,207.458374 C 57.460068,200.988037 68.746964,200.988037 75.708527,207.458374  z"  />
<path  style="fill:none;stroke:#000000;stroke-width:1.000000px;stroke-opacity:1.000000;stroke-linecap:butt;stroke-linejoin:miter;" 
 d="M 75.716339,264.056030 C 82.677887,270.526398 82.677887,281.016876 75.716339,287.487244 C 68.754776,293.957581 57.467880,293.957581 50.506317,287.487244 C 43.544769,281.016876 43.544769,270.526398 50.506317,264.056030 C 57.467880,257.585693 68.754776,257.585693 75.716339,264.056030  z"  />
<path  style="fill:none;stroke:#000000;stroke-width:1.000000px;stroke-opacity:1.000000;stroke-linecap:butt;stroke-linejoin:miter;" 
 d="M 76.263214,144.997437 C 83.224762,151.467789 83.224762,161.958298 76.263214,168.428650 C 69.301651,174.898987 58.014755,174.898987 51.053192,168.428650 C 44.091644,161.958298 44.091644,151.467789 51.053192,144.997437 C 58.014755,138.527100 69.301651,138.527100 76.263214,144.997437  z"  />
<path  style="fill:none;stroke:#000000;stroke-width:1.000000px;stroke-opacity:1.000000;stroke-linecap:butt;stroke-linejoin:miter;" 
 d="M 74.450714,442.493378 C 81.412262,448.963745 81.412262,459.454224 74.450714,465.924591 C 67.489151,472.394928 56.202255,472.394928 49.240692,465.924591 C 42.279144,459.454224 42.279144,448.963745 49.240692,442.493378 C 56.202255,436.023041 67.489151,436.023041 74.450714,442.493378  z"  />
<path  style="fill:none;stroke:#000000;stroke-width:1.000000px;stroke-opacity:1.000000;stroke-linecap:butt;stroke-linejoin:miter;" 
 d="M 73.966339,384.966034 C 80.927887,391.436401 80.927887,401.926880 73.966339,408.397247 C 67.004776,414.867584 55.717880,414.867584 48.756317,408.397247 C 41.794769,401.926880 41.794769,391.436401 48.756317,384.966034 C 55.717880,378.495697 67.004776,378.495697 73.966339,384.966034  z"  />
<path  style="fill:none;stroke:#000000;stroke-width:1.000000px;stroke-opacity:1.000000;stroke-linecap:butt;stroke-linejoin:miter;" 
 d="M 75.192902,324.067596 C 82.154449,330.537964 82.154449,341.028442 75.192902,347.498810 C 68.231339,353.969147 56.944443,353.969147 49.982880,347.498810 C 43.021332,341.028442 43.021332,330.537964 49.982880,324.067596 C 56.944443,317.597260 68.231339,317.597260 75.192902,324.067596  z"  />
</g>
</svg>
